
                     Wanted.2008.BRRip.XviD.AC3[5.1]-VLiS

                       http://www.imdb.com/title/tt0493464/



Movie Title: Wanted

Director: Timur Bekmambetov

Cast: Angelina Jolie, James McAvoy, Morgan Freeman, Terence Stamp



            Language: English - Optional English subtitles included



General
Format                           : AVI
Format/Info                      : Audio Video Interleave
File size                        : 1.36 GiB
Duration                         : 1h 50mn
Overall bit rate                 : 1 773 Kbps
Writing application              : VirtualDubMod 1.5.10.2 (build 2542/release)
Writing library                  : VirtualDubMod build 2542/release

Video
Format                           : MPEG-4 Visual
Format profile                   : Streaming Video@L1
Format settings, BVOP            : Yes
Format settings, QPel            : No
Format settings, GMC             : No warppoints
Format settings, Matrix          : Default (MPEG)
Codec ID                         : XVID
Codec ID/Hint                    : XviD
Duration                         : 1h 50mn
Bit rate                         : 1 316 Kbps
Width                            : 720 pixels
Height                           : 304 pixels
Display aspect ratio             : 2.35
Frame rate                       : 23.976 fps
Resolution                       : 24 bits
Colorimetry                      : 4:2:0
Scan type                        : Progressive
Bits/(Pixel*Frame)               : 0.251
Stream size                      : 1.01 GiB (74%)
Writing library                  : XviD 1.2.1 (UTC 2008-12-04)

Audio
Format                           : AC-3
Format/Info                      : Audio Coding 3
Codec ID                         : 2000
Duration                         : 1h 50mn
Bit rate mode                    : Constant
Bit rate                         : 448 Kbps
Channel(s)                       : 6 channels
Channel positions                : Front: L C R, Surround: L R, LFE
Sampling rate                    : 48.0 KHz
Stream size                      : 353 MiB (25%)
Alignment                        : Split accross interleaves
Interleave, duration             : 42 ms (1.00 video frame)
Interleave, preload duration     : 500 ms


Source: Wanted.720p.Bluray.x264-SEPTiC


Screenshots:  
http://i556.photobucket.com/albums/ss5/VLiS-/WTD/1.png 
http://i556.photobucket.com/albums/ss5/VLiS-/WTD/2.png 
http://i556.photobucket.com/albums/ss5/VLiS-/WTD/3.png 
http://i556.photobucket.com/albums/ss5/VLiS-/WTD/4.png 
http://i556.photobucket.com/albums/ss5/VLiS-/WTD/5.png




                               Encoded By VLiS